<?xml version="1.0" encoding="UTF-8" standalone="no"?>
<!-- Created with Inkscape (http://www.inkscape.org/) -->

<svg
   xmlns:dc="http://purl.org/dc/elements/1.1/"
   xmlns:cc="http://creativecommons.org/ns#"
   xmlns:rdf="http://www.w3.org/1999/02/22-rdf-syntax-ns#"
   xmlns:svg="http://www.w3.org/2000/svg"
   xmlns="http://www.w3.org/2000/svg"
   xmlns:sodipodi="http://sodipodi.sourceforge.net/DTD/sodipodi-0.dtd"
   xmlns:inkscape="http://www.inkscape.org/namespaces/inkscape"
   width="32.795918mm"
   height="13.999022mm"
   viewBox="0 0 32.795917 13.999022"
   version="1.1"
   id="svg1326"
   sodipodi:docname="arror-fat-green.svg"
   inkscape:version="0.92.4 (unknown)">
  <defs
     id="defs1320" />
  <sodipodi:namedview
     id="base"
     pagecolor="#ffffff"
     bordercolor="#666666"
     borderopacity="1.0"
     inkscape:pageopacity="0.0"
     inkscape:pageshadow="2"
     inkscape:zoom="1.6585519"
     inkscape:cx="94.030242"
     inkscape:cy="98.819826"
     inkscape:document-units="mm"
     inkscape:current-layer="layer1"
     showgrid="false"
     inkscape:window-width="1920"
     inkscape:window-height="1016"
     inkscape:window-x="0"
     inkscape:window-y="27"
     inkscape:window-maximized="1"
     fit-margin-top="0"
     fit-margin-left="0"
     fit-margin-right="0"
     fit-margin-bottom="0" />
  <metadata
     id="metadata1323">
    <rdf:RDF>
      <cc:Work
         rdf:about="">
        <dc:format>image/svg+xml</dc:format>
        <dc:type
           rdf:resource="http://purl.org/dc/dcmitype/StillImage" />
        <dc:title></dc:title>
      </cc:Work>
    </rdf:RDF>
  </metadata>
  <g
     inkscape:label="Layer 1"
     inkscape:groupmode="layer"
     id="layer1"
     transform="translate(-55.989212,-115.44133)">
    <path
       inkscape:connector-curvature="0"
       id="path136"
       style="fill:#b9b9b9;fill-opacity:1;fill-rule:nonzero;stroke:#bbbbbb;stroke-width:0.50268292;stroke-miterlimit:4;stroke-dasharray:none;stroke-opacity:1"
       d="m 77.058606,129.18901 c 0.494611,-0.88559 1.502767,-2.87547 1.502767,-2.87547 0,0 -17.220854,-0.72852 -22.069479,-3.52788 4.790411,-2.76575 22.207991,-3.34147 22.207991,-3.34147 0,0 -0.937978,-2.01766 -1.407173,-2.91713 2.178909,0 7.555515,2.91464 11.09363,6.45275 -3.281828,3.28183 -9.269822,6.2092 -11.327736,6.2092 z"
       sodipodi:nodetypes="ccccccc" />
    <path
       sodipodi:nodetypes="ccccccc"
       d="m 77.101947,128.35461 c 0.494607,-0.88559 1.502762,-2.87547 1.502762,-2.87547 0,0 -17.22085,-0.72852 -22.069475,-3.52788 4.790412,-2.76575 22.207988,-3.34147 22.207988,-3.34147 0,0 -0.937978,-2.01766 -1.407173,-2.91712 2.178909,0 7.555514,2.91463 11.09363,6.45274 -3.281828,3.28183 -9.269822,6.2092 -11.327732,6.2092 z"
       style="fill:#6faa34;fill-opacity:1;fill-rule:nonzero;stroke:#fcfafa;stroke-width:0.50268292;stroke-miterlimit:4;stroke-dasharray:none;stroke-opacity:1"
       id="path1907"
       inkscape:connector-curvature="0" />
  </g>
</svg>
