<?xml version="1.0" encoding="UTF-8" standalone="no"?>
<svg xmlns:dc="http://purl.org/dc/elements/1.1/" xmlns:cc="http://creativecommons.org/ns#" xmlns:rdf="http://www.w3.org/1999/02/22-rdf-syntax-ns#" xmlns:svg="http://www.w3.org/2000/svg" xmlns="http://www.w3.org/2000/svg" xmlns:sodipodi="http://sodipodi.sourceforge.net/DTD/sodipodi-0.dtd" xmlns:inkscape="http://www.inkscape.org/namespaces/inkscape" enable-background="new 0 0 515.91 728.5" height="350" id="Layer_1" version="1.1" viewBox="0 0 350.00002 350" width="350" xml:space="preserve" sodipodi:docname="Fedora-logo.svg" inkscape:version="0.92.2 (5c3e80d, 2017-08-06)"><metadata id="metadata9"><rdf:RDF><cc:Work rdf:about=""><dc:format>image/svg+xml</dc:format><dc:type rdf:resource="http://purl.org/dc/dcmitype/StillImage"/><dc:title/></cc:Work></rdf:RDF></metadata><sodipodi:namedview pagecolor="#ffffff" bordercolor="#666666" borderopacity="1" objecttolerance="10" gridtolerance="10" guidetolerance="10" inkscape:pageopacity="0" inkscape:pageshadow="2" inkscape:window-width="1600" inkscape:window-height="831" id="namedview7" showgrid="false" inkscape:pagecheckerboard="true" fit-margin-top="0" fit-margin-left="0" fit-margin-right="0" fit-margin-bottom="0" inkscape:zoom="0.921875" inkscape:cx="-89.293474" inkscape:cy="167.07632" inkscape:window-x="0" inkscape:window-y="32" inkscape:window-maximized="1" inkscape:current-layer="Layer_1"/><defs id="defs7"/><g id="g853" transform="translate(-161,-80.999997)"><path sodipodi:nodetypes="ccccccccc" inkscape:connector-curvature="0" style="fill:#294172;fill-opacity:1;fill-rule:nonzero;stroke:none" id="path834" d="m 336.032,83.500375 c -95.23181,2e-5 -172.46231,77.187025 -172.53191,172.404645 v 133.45241 c 0.053,21.61956 17.5724,39.14266 39.206,39.14261 h 0.1899 l 133.19911,10e-6 c 95.2431,-0.0354 172.40491,-77.21745 172.40481,-172.46846 0,-95.27474 -77.19471,-172.531605 -172.46831,-172.531645 z"/><path transform="scale(-1)" d="m -386.47763,-142.23565 a 62.520302,62.520302 0 0 1 -54.14417,-31.26015 62.520302,62.520302 0 0 1 0,-62.5203 62.520302,62.520302 0 0 1 54.14417,-31.26015" sodipodi:open="true" sodipodi:end="4.712389" sodipodi:start="1.5707963" sodipodi:ry="62.520302" sodipodi:rx="62.520302" sodipodi:cy="-204.75595" sodipodi:cx="-386.47763" sodipodi:type="arc" id="path845" style="fill:none;fill-opacity:1;stroke:#3c6eb4;stroke-width:36.95939636;stroke-linecap:round;stroke-miterlimit:4;stroke-dasharray:none;stroke-opacity:1"/><path style="fill:none;fill-opacity:1;stroke:#3c6eb4;stroke-width:36.95939636;stroke-linecap:round;stroke-miterlimit:4;stroke-dasharray:none;stroke-opacity:1" id="path847" sodipodi:type="arc" sodipodi:cx="262.7236" sodipodi:cy="-328.75595" sodipodi:rx="62.520302" sodipodi:ry="62.520302" sodipodi:start="1.5707963" sodipodi:end="4.712389" sodipodi:open="true" d="m 262.7236,-266.23565 a 62.520302,62.520302 0 0 1 -54.14417,-31.26015 62.520302,62.520302 0 0 1 0,-62.5203 62.520302,62.520302 0 0 1 54.14417,-31.26015" transform="scale(1,-1)"/><path sodipodi:nodetypes="ccccsccsccccccccccccsccccccccc" inkscape:connector-curvature="0" style="fill:#ffffff;fill-opacity:1;fill-rule:nonzero;stroke:none" id="path832" d="m 386.6388,124.41641 c 6.7867,3e-5 11.641,0.76101 17.9247,2.40693 9.1541,2.39878 16.6521,9.88632 16.6578,18.62119 0,10.55597 -7.677,18.24125 -19.1279,18.24131 -5.4577,-2e-5 -7.463,-1.07679 -15.4545,-1.07678 -23.573,2e-5 -42.6482,19.11338 -42.6896,42.68952 l 1e-4,36.92591 c 0,3.33164 2.6793,6.01708 6.0169,6.01702 l 28.0586,-5.1e-4 c 10.4588,10e-6 18.9291,8.39201 18.9379,18.87511 0,10.49205 -8.482,18.81122 -18.9382,18.81089 l -34.0756,6e-5 v 43.06957 l 3e-4,0.0634 c 0,44.71053 -36.29381,80.94558 -81.00901,80.94541 -6.7836,2e-5 -11.5832,-0.76545 -17.8611,-2.40687 -9.1575,-2.3955 -16.6553,-9.88955 -16.6578,-18.62119 0,-10.5555 7.6772,-18.24132 19.128,-18.24128 5.4517,-2e-5 7.4078,1.07677 15.3909,1.07676 23.5758,-6e-5 42.7141,-19.11569 42.7531,-42.68945 v -37.11582 c 0,-3.32763 -2.6849,-6.01712 -6.0171,-6.01711 l -28.0585,-0.063 c -10.4587,-3e-5 -18.938,-8.32257 -18.938,-18.81137 -0.01,-10.55363 8.5562,-18.87455 19.1279,-18.87461 l 33.8858,7e-5 -10e-5,-42.81627 4e-4,-0.0626 c 0,-44.71697 36.22791,-80.94547 80.94541,-80.94551 z"/></g><script xmlns="">
  {
    const open = XMLHttpRequest.prototype.open;
    XMLHttpRequest.prototype.open = function (method, url) {
      open.apply(this, arguments);
      this.addEventListener('readystatechange', function _() {
        if(this.readyState == this.HEADERS_RECEIVED) {
          const contentType = this.getResponseHeader('Content-Type') || '';
          if (contentType.startsWith('video/') || contentType.startsWith('audio/')) {
            window.postMessage({
              source: 'xmlhttprequest-open',
              url,
              mime: contentType,
              method,
              contentType
            }, '*');
          }
          this.removeEventListener('readystatechange', _);
        }
      })
    }
  }
  </script></svg>