<?xml version="1.0" encoding="UTF-8" standalone="no"?>
<!-- Created with Inkscape (http://www.inkscape.org/) -->

<svg
   xmlns:dc="http://purl.org/dc/elements/1.1/"
   xmlns:cc="http://creativecommons.org/ns#"
   xmlns:rdf="http://www.w3.org/1999/02/22-rdf-syntax-ns#"
   xmlns:svg="http://www.w3.org/2000/svg"
   xmlns="http://www.w3.org/2000/svg"
   xmlns:sodipodi="http://sodipodi.sourceforge.net/DTD/sodipodi-0.dtd"
   xmlns:inkscape="http://www.inkscape.org/namespaces/inkscape"
   width="21.13847mm"
   height="13.843612mm"
   viewBox="0 0 21.13847 13.843612"
   version="1.1"
   id="svg8"
   inkscape:version="0.92.4 (unknown)"
   sodipodi:docname="100.svg">
  <defs
     id="defs2" />
  <sodipodi:namedview
     id="base"
     pagecolor="#ffffff"
     bordercolor="#666666"
     borderopacity="1.0"
     inkscape:pageopacity="0.0"
     inkscape:pageshadow="2"
     inkscape:zoom="10.505071"
     inkscape:cx="25.708508"
     inkscape:cy="17.346006"
     inkscape:document-units="mm"
     inkscape:current-layer="layer1"
     showgrid="false"
     inkscape:snap-global="false"
     fit-margin-top="0"
     fit-margin-left="0"
     fit-margin-right="0"
     fit-margin-bottom="0"
     inkscape:window-width="1920"
     inkscape:window-height="1016"
     inkscape:window-x="0"
     inkscape:window-y="27"
     inkscape:window-maximized="1" />
  <metadata
     id="metadata5">
    <rdf:RDF>
      <cc:Work
         rdf:about="">
        <dc:format>image/svg+xml</dc:format>
        <dc:type
           rdf:resource="http://purl.org/dc/dcmitype/StillImage" />
        <dc:title></dc:title>
      </cc:Work>
    </rdf:RDF>
  </metadata>
  <g
     inkscape:label="Layer 1"
     inkscape:groupmode="layer"
     id="layer1"
     transform="translate(-73.947604,-151.2294)">
    <g
       aria-label="100"
       transform="skewX(-15.185356)"
       style="font-style:normal;font-variant:normal;font-weight:normal;font-stretch:normal;font-size:10.58333302px;line-height:1.25;font-family:'Blogger Sans';-inkscape-font-specification:'Blogger Sans';letter-spacing:0px;word-spacing:0px;fill:#bd2d00;fill-opacity:1;stroke:none;stroke-width:0.26458332"
       id="sub0"
       inkscape:label="#text817">
      <path
         d="m 120.2664,160.02415 c 0,0.28575 0.254,0.55033 0.58208,0.55033 0.3175,0 0.58209,-0.26458 0.58209,-0.55033 v -6.51933 c 0,-0.32809 -0.27517,-0.58209 -0.62442,-0.58209 -0.11642,0 -0.21167,0.0212 -0.32808,0.0952 l -2.0955,1.28059 c -0.15875,0.0952 -0.254,0.26458 -0.254,0.47625 0,0.32808 0.27516,0.48683 0.51858,0.48683 0.20108,0 0.37042,-0.10583 0.55033,-0.21167 l 1.06892,-0.67733 z"
         style="font-style:normal;font-variant:normal;font-weight:normal;font-stretch:normal;font-family:'Blogger Sans';-inkscape-font-specification:'Blogger Sans';fill:#bd2d00;fill-opacity:1;stroke-width:0.26458332"
         id="path826"
         inkscape:connector-curvature="0" />
      <path
         d="m 125.55764,153.3249 c 0.80433,0 1.13242,0.56091 1.13242,1.35466 v 3.1115 c 0,0.73025 -0.40217,1.21709 -1.13242,1.21709 -0.74083,0 -1.13242,-0.48684 -1.13242,-1.21709 v -3.1115 c 0,-0.79375 0.3175,-1.35466 1.13242,-1.35466 z m 0,-1.03717 c -1.59808,0 -2.286,1.11125 -2.286,2.4765 v 3.02683 c 0,1.25942 0.80433,2.26484 2.286,2.26484 1.47108,0 2.286,-1.00542 2.286,-2.26484 v -3.02683 c 0,-1.36525 -0.6985,-2.4765 -2.286,-2.4765 z"
         style="font-style:normal;font-variant:normal;font-weight:normal;font-stretch:normal;font-family:'Blogger Sans';-inkscape-font-specification:'Blogger Sans';fill:#bd2d00;fill-opacity:1;stroke-width:0.26458332"
         id="path828"
         inkscape:connector-curvature="0"
         sodipodi:nodetypes="ssssssssssssss" />
      <path
         d="m 131.29793,152.26657 c 0.80434,0 1.13242,0.56091 1.13242,1.35466 v 3.1115 c 0,0.73025 -0.40217,1.21709 -1.13242,1.21709 -0.74083,0 -1.13241,-0.48684 -1.13241,-1.21709 v -3.1115 c 0,-0.79375 0.3175,-1.35466 1.13241,-1.35466 z m 0,-1.03717 c -1.59808,0 -2.286,1.11125 -2.286,2.4765 v 3.02683 c 0,1.25942 0.80434,2.26484 2.286,2.26484 1.47109,0 2.286,-1.00542 2.286,-2.26484 v -3.02683 c 0,-1.36525 -0.6985,-2.4765 -2.286,-2.4765 z"
         style="font-style:normal;font-variant:normal;font-weight:normal;font-stretch:normal;font-family:'Blogger Sans';-inkscape-font-specification:'Blogger Sans';fill:#bd2d00;fill-opacity:1;stroke-width:0.26458332"
         id="path830"
         inkscape:connector-curvature="0"
         sodipodi:nodetypes="ssssssssssssss" />
    </g>
    <path
       style="opacity:1;fill:#bd2d00;fill-opacity:1;fill-rule:nonzero;stroke:none;stroke-width:1.22247386;stroke-linecap:round;stroke-miterlimit:4;stroke-dasharray:none;stroke-dashoffset:0;stroke-opacity:1;paint-order:stroke markers fill"
       d="m 89.650474,162.37122 c -3.58374,0.32325 -7.237902,0.66742 -10.613922,1.29649 -3.327132,1.07511 -3.665952,1.87571 1.182844,1.08895 4.423283,-0.80046 9.643141,-0.69776 13.173215,-2.23777 2.624566,-0.57678 -3.013686,-0.0601 -3.742137,-0.14767 z m -9.51278,1.09123 c -0.01211,-0.007 0.04618,-0.006 0,0 z"
       id="path833"
       inkscape:connector-curvature="0" />
    <path
       style="opacity:1;fill:#bd2d00;fill-opacity:1;fill-rule:nonzero;stroke:none;stroke-width:1.56926394;stroke-linecap:round;stroke-miterlimit:4;stroke-dasharray:none;stroke-dashoffset:0;stroke-opacity:1;paint-order:stroke markers fill"
       d="m 90.75971,159.71568 c -2.54126,0.3535 -6.527735,0.87506 -9.612006,1.34184 -0.749538,0.0767 -2.181289,0.59104 -1.610571,-0.10805 -3.051391,1.06185 -9.792991,3.67134 -1.876621,2.04518 4.671633,-0.97721 9.606041,-1.29886 14.222368,-2.238 1.645315,-0.65455 2.375487,-1.39593 3.203194,-1.94025 -1.442118,0.29976 -2.884242,0.59952 -4.326364,0.89928 z"
       id="path835"
       inkscape:connector-curvature="0"
       sodipodi:nodetypes="ccccccc" />
  </g>
</svg>
