<?xml version="1.0" encoding="UTF-8" standalone="no"?>
<!-- Generator: Adobe Illustrator 16.0.0, SVG Export Plug-In . SVG Version: 6.00 Build 0)  -->

<svg
   xmlns:dc="http://purl.org/dc/elements/1.1/"
   xmlns:cc="http://creativecommons.org/ns#"
   xmlns:rdf="http://www.w3.org/1999/02/22-rdf-syntax-ns#"
   xmlns:svg="http://www.w3.org/2000/svg"
   xmlns="http://www.w3.org/2000/svg"
   xmlns:sodipodi="http://sodipodi.sourceforge.net/DTD/sodipodi-0.dtd"
   xmlns:inkscape="http://www.inkscape.org/namespaces/inkscape"
   version="1.1"
   id="Layer_1"
   x="0px"
   y="0px"
   width="95.239616"
   height="154.11185"
   viewBox="0 0 95.239617 154.11185"
   enable-background="new 0 0 512 512"
   xml:space="preserve"
   sodipodi:docname="rocket1.svg"
   inkscape:version="0.92.4 (unknown)"><metadata
   id="metadata19"><rdf:RDF><cc:Work
       rdf:about=""><dc:format>image/svg+xml</dc:format><dc:type
         rdf:resource="http://purl.org/dc/dcmitype/StillImage" /><dc:title></dc:title></cc:Work></rdf:RDF></metadata><defs
   id="defs17">
	
	

		
		
	
			
		</defs><sodipodi:namedview
   pagecolor="#ffffff"
   bordercolor="#666666"
   borderopacity="1"
   objecttolerance="10"
   gridtolerance="10"
   guidetolerance="10"
   inkscape:pageopacity="0"
   inkscape:pageshadow="2"
   inkscape:window-width="1920"
   inkscape:window-height="1016"
   id="namedview15"
   showgrid="false"
   inkscape:zoom="1.7614306"
   inkscape:cx="-27.08575"
   inkscape:cy="114.31324"
   inkscape:window-x="0"
   inkscape:window-y="27"
   inkscape:window-maximized="1"
   inkscape:current-layer="Layer_1"
   fit-margin-top="0"
   fit-margin-left="0"
   fit-margin-right="0"
   fit-margin-bottom="0" />
<path
   style="fill:#4348c2;fill-opacity:1;stroke-width:0.31729028"
   d="M 47.479409,0 C 40.618324,4.158727 35.798084,10.866159 31.30938,17.361728 21.349005,32.635763 15.068119,50.810503 15.965419,69.197783 c -0.04762,0.74722 0.373818,1.76451 -0.464784,2.20554 -3.01013,2.41426 -6.0060469,4.8462 -8.960972,7.32804 -5.104247,4.44112 -7.53276075,11.65389 -6.16175001,18.27827 1.68703711,7.830727 3.50367541,15.635407 5.24210301,23.454077 0.7630846,3.62885 5.110312,5.79072 8.486281,4.34229 2.17756,-1.00962 3.707652,-2.95296 5.547618,-4.43153 3.806852,-3.1948 7.419535,-6.77507 11.315862,-9.75791 4.782518,4.46935 11.313385,7.20508 17.91017,6.73993 5.730577,-0.3176 11.18919,-2.95442 15.298098,-6.90849 5.430741,4.5401 10.727788,9.24107 16.160118,13.77547 3.272845,2.62875 8.839471,0.74528 9.779605,-3.36935 1.691154,-7.99762 3.22717,-16.03505 4.825042,-24.054557 1.146689,-6.34835 -1.077278,-13.17743 -5.840122,-17.55508 -3.317908,-2.88099 -6.783399,-5.59176 -10.151435,-8.41501 C 80.236598,51.772073 73.865108,32.811073 63.44307,17.024604 59.018458,10.644215 54.244988,4.055604 47.479409,0 Z m -0.360673,36.135153 c 0.581784,-0.0146 1.165375,0.0106 1.746333,0.0775 5.032861,0.44294 9.60848,4.00573 11.317723,8.75461 1.865349,4.92593 0.544291,10.92015 -3.363777,14.49062 -5.062683,5.11853 -14.231232,4.92432 -19.071495,-0.40901 -4.571838,-4.53217 -5.048813,-12.39296 -1.106797,-17.4677 2.418425,-3.29462 6.405537,-5.34361 10.478013,-5.44598 z m 0.257798,7.08697 c -3.646864,2.5e-4 -6.603072,2.95674 -6.602985,6.6036 2.54e-4,3.64662 2.956362,6.60273 6.602985,6.60299 3.646864,8e-5 6.603349,-2.95612 6.603603,-6.60299 8.7e-5,-3.6471 -2.956498,-6.60369 -6.603603,-6.6036 z"
   id="sub0"
   inkscape:label="#path2"
   inkscape:connector-curvature="0"
   sodipodi:nodetypes="ccccccccccccccccccccccccccccccc" />
  <path
   inkscape:connector-curvature="0"
   inkscape:label="#path2"
   id="path812"
   d="m 32.734343,123.93345 c -1.621945,0.0392 -3.222973,1.36265 -3.172288,3.09172 -0.006,4.83423 -0.0319,9.66853 0.0075,14.50054 -0.02573,2.37491 3.125874,3.92882 4.973773,2.42677 1.410673,-1.24378 2.688199,-2.63723 4.02748,-3.95621 2.191846,4.18252 4.204441,8.45973 6.384231,12.64637 1.061016,1.97133 4.313865,1.95753 5.354892,-0.0334 2.167726,-4.17872 4.19399,-8.43056 6.343944,-12.6191 1.358954,1.30723 2.63288,2.70805 4.045454,3.95373 1.855831,1.49475 5.013389,-0.0292 4.975633,-2.41934 0.02573,-4.89801 0.02015,-9.79994 -0.0075,-14.69636 -0.06949,-2.24324 -2.861346,-3.63226 -4.745099,-2.47574 -8.207983,4.22663 -18.411237,4.22879 -26.619536,0.003 -0.48482,-0.30499 -1.027835,-0.43447 -1.568478,-0.4214 z"
   style="fill:#ff4f2d;fill-opacity:1;stroke-width:0.31729028"
   sodipodi:nodetypes="ccccccccccccccc" /></svg>